<?xml version="1.0" encoding="UTF-8" standalone="no" ?>
<!DOCTYPE svg PUBLIC "-//W3C//DTD SVG 1.1//EN" "http://www.w3.org/Graphics/SVG/1.1/DTD/svg11.dtd">
<svg xmlns="http://www.w3.org/2000/svg" xmlns:xlink="http://www.w3.org/1999/xlink" version="1.1" width="80" height="80" viewBox="0 0 400 400" xml:space="preserve">
<desc>Created with Fabric.js 3.6.2</desc>
<defs>
</defs>
<g transform="matrix(6.67 0 0 6.67 180 193.34)" id="Layer_1"  >
<path  style="stroke: none; stroke-width: 1; stroke-dasharray: none; stroke-linecap: butt; stroke-dashoffset: 0; stroke-linejoin: miter; stroke-miterlimit: 4; fill: #000; fill-rule: nonzero; opacity: 1;"  transform=" translate(-12, -14)" d="M 14 23 c 0 -3.539 2.047 -6.591 5.017 -8.062 c 0.409 -0.57 0.785 -1.273 0.855 -1.89 c 0.354 -0.027 0.91 -0.352 1.074 -1.635 c 0.088 -0.689 -0.262 -1.076 -0.474 -1.198 c 0 0 0.528 -1.003 0.528 -2.214 c 0 -2.428 -0.953 -4.5 -3 -4.5 c 0 0 -0.711 -1.5 -3 -1.5 c -4.242 0 -6 2.721 -6 6 c 0 1.104 0.528 2.214 0.528 2.214 c -0.212 0.122 -0.562 0.51 -0.474 1.198 c 0.164 1.283 0.72 1.608 1.074 1.635 C 10.263 14.245 11.55 15.777 12 16 v 2 c -1 3 -9 1 -9 8 h 11.523 C 14.19 25.06 14 24.054 14 23 z" stroke-linecap="round" />
</g>
<g transform="matrix(6.67 0 0 6.67 253.33 253.33)" id="Layer_1"  >
<path class="logoLogin" id="ggg" style="stroke: none; stroke-width: 1; stroke-dasharray: none; stroke-linecap: butt; stroke-dashoffset: 0; stroke-linejoin: miter; stroke-miterlimit: 4; fill : #000; fill-rule: nonzero; opacity: 1;"  transform=" translate(-23, -23)" d="M 23 16 c -3.866 0 -7 3.134 -7 7 c 0 3.866 3.134 7 7 7 s 7 -3.134 7 -7 C 30 19.134 26.866 16 23 16 z M 26 24 h -2 v 2 c 0 0.553 -0.448 1 -1 1 s -1 -0.447 -1 -1 v -2 h -2 c -0.552 0 -1 -0.447 -1 -1 s 0.448 -1 1 -1 h 2 v -2 c 0 -0.553 0.448 -1 1 -1 s 1 0.447 1 1 v 2 h 2 c 0.552 0 1 0.447 1 1 S 26.552 24 26 24 z" stroke-linecap="round" />
</g>
</svg>